<svg width="35" height="34" viewBox="0 0 35 34" fill="none" xmlns="http://www.w3.org/2000/svg">
<path d="M17.4146 0C7.79885 0 0 7.80418 0 17.4298C0 25.1308 4.98929 31.6641 11.9102 33.9692C12.7794 34.1304 13.061 33.5901 13.061 33.1311V29.8862C8.21681 30.9407 7.20821 27.8295 7.20821 27.8295C6.41584 25.8149 5.27373 25.279 5.27373 25.279C3.69335 24.1969 5.39418 24.2201 5.39418 24.2201C7.1429 24.3421 8.06298 26.0168 8.06298 26.0168C9.61578 28.6807 12.1366 27.9109 13.1306 27.465C13.2859 26.3393 13.7372 25.5695 14.2365 25.1352C10.369 24.6922 6.30265 23.1976 6.30265 16.5205C6.30265 14.6163 6.98327 13.0622 8.09635 11.8421C7.9164 11.402 7.31995 9.62849 8.26615 7.229C8.26615 7.229 9.72898 6.7613 13.0566 9.01555C14.4454 8.62919 15.9344 8.43601 17.4146 8.42874C18.8949 8.43601 20.3853 8.62919 21.777 9.01555C25.1017 6.7613 26.5617 7.229 26.5617 7.229C27.5093 9.62995 26.9129 11.4034 26.7329 11.8421C27.8504 13.0622 28.5252 14.6178 28.5252 16.5205C28.5252 23.215 24.4516 24.6893 20.5739 25.1206C21.198 25.661 21.7683 26.7213 21.7683 28.3481V33.1311C21.7683 33.5944 22.0469 34.1391 22.9307 33.9677C29.8458 31.6597 34.8293 25.1279 34.8293 17.4298C34.8293 7.80418 27.0319 0 17.4146 0Z" fill="white"/>
</svg>
