<svg width="92" height="34" viewBox="0 0 92 34" fill="none" xmlns="http://www.w3.org/2000/svg">
<g clip-path="url(#clip0_13_206)">
<path d="M47.2655 11.2616L51.621 10.98C51.7204 11.6921 51.9026 12.2221 52.2007 12.603C52.681 13.1992 53.3434 13.4973 54.2211 13.4973C54.867 13.4973 55.3804 13.3483 55.7282 13.0336C56.0594 12.7852 56.2582 12.3877 56.2582 11.9737C56.2582 11.5762 56.076 11.1953 55.7613 10.9469C55.4301 10.6488 54.6517 10.3507 53.4262 10.0857C51.4223 9.63856 49.9815 9.04236 49.1369 8.28055C48.2923 7.56842 47.812 6.52507 47.8451 5.41547C47.8451 4.65366 48.077 3.89185 48.5075 3.26253C49.0044 2.5504 49.6834 1.98732 50.4949 1.67266C51.3726 1.29175 52.5981 1.09302 54.1383 1.09302C56.0263 1.09302 57.4671 1.4408 58.4608 2.15293C59.4545 2.8485 60.0507 3.97465 60.2328 5.51484L55.9269 5.76326C55.811 5.10081 55.5791 4.62054 55.1982 4.30588C54.8173 3.99122 54.3205 3.84217 53.6746 3.84217C53.1447 3.84217 52.7472 3.95809 52.4822 4.17339C52.2338 4.37212 52.0682 4.67022 52.0848 5.00144C52.0848 5.24986 52.2172 5.48172 52.416 5.63077C52.6313 5.8295 53.1447 6.01167 53.9562 6.17728C55.9601 6.60787 57.3843 7.03846 58.2621 7.48561C59.1398 7.93276 59.7691 8.47928 60.15 9.12517C60.5475 9.78761 60.4647 9.90354 60.4481 10.6819C59.7857 11.8412 60.4647 13.1826 59.9347 13.961C59.3882 14.7725 58.6264 15.4018 57.7321 15.7827C56.7881 16.1968 55.5957 16.4121 54.1715 16.4121C51.6542 16.4121 49.9152 15.9318 48.9381 14.9547C47.961 13.9776 47.3814 12.7521 47.2655 11.2616ZM1.04335 16.1636V1.358H8.67803C10.0857 1.358 11.1788 1.47392 11.924 1.72234C12.6527 1.9542 13.2986 2.43447 13.7292 3.08035C14.2094 3.79248 14.4413 4.62054 14.4247 5.48172C14.4744 6.9391 13.7292 8.33023 12.454 9.05892C11.9571 9.34046 11.4106 9.53919 10.8475 9.63856C11.2616 9.75449 11.6756 9.95322 12.0399 10.1851C12.3215 10.4169 12.5533 10.6819 12.7686 10.9635C13.017 11.245 13.2323 11.5597 13.4145 11.8909L15.6337 16.1802H10.4335L7.98246 11.6259C7.6678 11.0463 7.40283 10.6654 7.15441 10.4832C6.82319 10.2513 6.42572 10.1354 6.02825 10.1354H5.63078V16.1471H1.04335V16.1636ZM5.63078 7.35313H7.56844C7.98246 7.32 8.37993 7.25376 8.7774 7.15439C9.0755 7.10471 9.34048 6.9391 9.52265 6.69068C9.9698 6.09448 9.90356 5.24986 9.35704 4.73647C9.05894 4.48805 8.4793 4.35556 7.65124 4.35556H5.63078V7.35313ZM0 28.8495L4.35558 28.5679C4.45494 29.2801 4.63712 29.81 4.93522 30.1909C5.39893 30.7871 6.07793 31.1018 6.95567 31.1018C7.60156 31.1018 8.11495 30.9527 8.46274 30.6381C8.79396 30.3731 8.99269 29.9922 8.99269 29.5782C8.99269 29.1807 8.81052 28.7998 8.49586 28.5514C8.16464 28.2533 7.38626 27.9552 6.14418 27.6902C4.14028 27.243 2.69946 26.6468 1.85485 25.885C1.01023 25.1729 0.529956 24.1295 0.563078 23.02C0.563078 22.2581 0.794934 21.4963 1.22552 20.867C1.72236 20.1549 2.40136 19.5918 3.21286 19.2771C4.0906 18.8962 5.31612 18.6975 6.85631 18.6975C8.74428 18.6975 10.1851 19.0453 11.1788 19.7574C12.1724 20.4695 12.7521 21.5791 12.9342 23.1193L8.62835 23.3677C8.51242 22.7053 8.28056 22.225 7.89966 21.9104C7.53531 21.5957 7.02192 21.4466 6.37603 21.4632C5.84608 21.4632 5.44861 21.5791 5.18363 21.811C4.91866 22.0097 4.76961 22.3078 4.78617 22.639C4.78617 22.8875 4.91866 23.1193 5.11739 23.2684C5.33268 23.4671 5.84608 23.6493 6.65757 23.8149C8.66147 24.2455 10.0857 24.6761 10.9635 25.1232C11.8412 25.5704 12.4705 26.1169 12.8514 26.7628C13.2489 27.4252 13.4476 28.187 13.4476 28.9488C13.4476 29.8763 13.1661 30.7871 12.6527 31.5655C12.1062 32.377 11.3444 33.0063 10.4501 33.3872C9.50609 33.8012 8.31369 34.0165 6.88943 34.0165C4.37214 34.0165 2.63322 33.5363 1.65611 32.5592C0.679006 31.5655 0.132489 30.34 0 28.8495Z" fill="white"/>
<path d="M22.0263 27.6902L26.0341 28.8992C25.8188 29.9094 25.3717 30.8699 24.7589 31.7146C24.1958 32.4598 23.4506 33.0394 22.6059 33.4204C21.7448 33.8013 20.6517 34 19.3268 34C17.7204 34 16.3955 33.7681 15.3853 33.3044C14.3585 32.8407 13.4808 32.0127 12.7355 30.8368C11.9903 29.661 11.6259 28.1539 11.6259 26.3156C11.6259 23.8646 12.2718 21.9766 13.5801 20.6683C14.8885 19.36 16.7267 18.6975 19.1115 18.6975C20.983 18.6975 22.4403 19.0784 23.5168 19.8237C24.5767 20.5855 25.3717 21.7448 25.9016 23.3015L21.8607 24.1958C21.7613 23.848 21.6123 23.5002 21.4135 23.2021C21.1651 22.8544 20.8505 22.5894 20.4696 22.3906C20.0887 22.1919 19.6581 22.1091 19.2275 22.1091C18.1841 22.1091 17.3892 22.5231 16.8427 23.3677C16.4286 23.9805 16.2133 24.9576 16.2133 26.2825C16.2133 27.9221 16.4618 29.0482 16.9586 29.661C17.4554 30.2737 18.151 30.5718 19.0619 30.5718C19.9396 30.5718 20.602 30.3234 21.0492 29.8431C21.4963 29.3298 21.8276 28.6176 22.0263 27.6902ZM31.3833 18.9459H35.9542V24.1296H40.9557V18.9459H45.5597V33.7516H40.9557V27.7564H35.9542V33.7516H31.3833V18.9459V18.9459Z" fill="white"/>
<path d="M44.9304 26.3488C44.9304 23.9308 45.6094 22.0429 46.9508 20.7014C48.2923 19.36 50.1802 18.681 52.5816 18.681C55.0492 18.681 56.9372 19.3434 58.2786 20.6683C59.6201 21.9932 60.2825 23.848 60.2825 26.2328C60.2825 27.9718 59.9844 29.3795 59.4048 30.4891C58.8417 31.5821 57.964 32.4764 56.8875 33.0726C55.7779 33.6854 54.4033 34 52.7638 34C51.0911 34 49.7165 33.735 48.6235 33.2051C47.4973 32.642 46.5699 31.7643 45.9572 30.6878C45.2781 29.5285 44.9304 28.0877 44.9304 26.3488ZM49.5012 26.3653C49.5012 27.8558 49.7828 28.9323 50.3293 29.5948C50.8758 30.2406 51.6376 30.5719 52.5982 30.5719C53.5753 30.5719 54.3371 30.2572 54.8836 29.6113C55.4301 28.9654 55.6951 27.8227 55.6951 26.1666C55.6951 24.7755 55.4136 23.7487 54.8505 23.1194C54.2874 22.4735 53.5256 22.1588 52.565 22.1588C51.7204 22.1257 50.9089 22.49 50.3459 23.1359C49.7828 23.7818 49.5012 24.8583 49.5012 26.3653V26.3653ZM64.9693 26.3488C64.9693 23.9308 65.6483 22.0429 66.9898 20.7014C68.3312 19.36 70.2192 18.681 72.6206 18.681C75.0882 18.681 76.9927 19.3434 78.3176 20.6683C79.6425 21.9932 80.3215 23.848 80.3215 26.2328C80.3215 27.9718 80.0234 29.3795 79.4438 30.4891C78.8807 31.5821 78.0029 32.4764 76.9265 33.0726C75.8169 33.6854 74.4423 34 72.8027 34C71.1301 34 69.7555 33.735 68.6625 33.2051C67.5363 32.642 66.6089 31.7643 65.9961 30.6878C65.3171 29.5285 64.9693 28.0877 64.9693 26.3488V26.3488ZM69.5402 26.3653C69.5402 27.8558 69.8217 28.9323 70.3683 29.5948C70.9148 30.2406 71.6766 30.5719 72.6371 30.5719C73.6142 30.5719 74.376 30.2572 74.9226 29.6113C75.4691 28.9654 75.7341 27.8227 75.7341 26.1666C75.7341 24.7755 75.4525 23.7487 74.8894 23.1194C74.3264 22.4735 73.5646 22.1588 72.604 22.1588C71.7594 22.1257 70.9313 22.49 70.3848 23.1359C69.8217 23.7818 69.5402 24.8583 69.5402 26.3653V26.3653Z" fill="white"/>
<path d="M79.8412 18.9459H84.4121V30.1081H91.5499V33.7516H79.8246V18.9459H79.8412Z" fill="white"/>
<path d="M74.8031 18.0915C79.405 14.6236 80.824 8.74493 77.9727 4.96115C75.1213 1.17738 69.0792 0.921306 64.4773 4.38921C59.8754 7.85711 58.4563 13.7358 61.3077 17.5195C64.1591 21.3033 70.2012 21.5594 74.8031 18.0915Z" stroke="white" stroke-width="4" stroke-miterlimit="10"/>
<path d="M74.8031 18.0915C79.405 14.6236 80.824 8.74493 77.9727 4.96115C75.1213 1.17738 69.0792 0.921306 64.4773 4.38921C59.8754 7.85711 58.4563 13.7358 61.3077 17.5195C64.1591 21.3033 70.2012 21.5594 74.8031 18.0915Z" stroke="white" stroke-width="4" stroke-miterlimit="10"/>
<path d="M64.9859 10.152L66.642 8.9927L68.679 11.8909C69.0268 12.3546 69.2918 12.8514 69.4905 13.398C69.6064 13.812 69.5733 14.2591 69.4077 14.6566C69.1924 15.1534 68.8446 15.5675 68.3809 15.8656C67.8344 16.2465 67.3707 16.4618 66.9732 16.528C66.5923 16.5943 66.1948 16.528 65.8305 16.3624C65.433 16.1637 65.0852 15.8821 64.8203 15.5178L66.2445 14.1929C66.3604 14.3751 66.5095 14.5407 66.6751 14.6732C66.791 14.756 66.9235 14.8057 67.0726 14.8057C67.1885 14.8057 67.3044 14.756 67.3872 14.6897C67.5528 14.5904 67.6688 14.3916 67.6522 14.1929C67.6025 13.9114 67.4866 13.6298 67.3044 13.4145L64.9859 10.152V10.152ZM69.9542 11.9903L71.4613 10.7979C71.6269 10.9966 71.8422 11.1457 72.074 11.2285C72.4053 11.3278 72.753 11.2616 73.0346 11.0463C73.2333 10.9138 73.3989 10.7316 73.4652 10.4998C73.5645 10.2017 73.3989 9.87044 73.1008 9.77108C73.0511 9.75452 73.0015 9.73795 72.9518 9.73795C72.753 9.72139 72.4053 9.8042 71.8919 10.0195C71.0472 10.3673 70.3848 10.4998 69.888 10.4501C69.4077 10.4004 68.9605 10.152 68.6956 9.73795C68.4968 9.45642 68.3975 9.12519 68.3809 8.79397C68.3809 8.41306 68.4803 8.03216 68.6956 7.7175C69.0102 7.27035 69.3911 6.88944 69.8548 6.59134C70.5504 6.11107 71.1632 5.87921 71.6931 5.87921C72.2231 5.87921 72.7199 6.12763 73.1836 6.64102L71.6931 7.81686C71.395 7.43596 70.8319 7.35315 70.451 7.65125L70.4014 7.70094C70.2357 7.8003 70.1198 7.94935 70.0536 8.13152C70.0039 8.26401 70.037 8.41306 70.1198 8.52899C70.1861 8.6118 70.2854 8.67804 70.4014 8.67804C70.5338 8.6946 70.7657 8.62836 71.0969 8.47931C71.925 8.13153 72.5543 7.93279 72.9849 7.86655C73.3492 7.8003 73.7301 7.83342 74.0779 7.98248C74.3926 8.11496 74.6576 8.34682 74.8397 8.62836C75.0716 8.95958 75.2041 9.35705 75.2206 9.77108C75.2372 10.2017 75.1213 10.6157 74.8894 10.98C74.5913 11.4272 74.2104 11.8081 73.7633 12.1062C72.8524 12.7355 72.1071 13.0005 71.5109 12.9011C70.8651 12.8018 70.3351 12.4705 69.9542 11.9903V11.9903Z" fill="white"/>
</g>
<defs>
<clipPath id="clip0_13_206">
<rect width="91.5499" height="34" fill="white"/>
</clipPath>
</defs>
</svg>
